<mxfile host="Electron" modified="2024-06-04T10:45:15.125Z" agent="Mozilla/5.0 (X11; Linux x86_64) AppleWebKit/537.36 (KHTML, like Gecko) draw.io/24.4.8 Chrome/124.0.6367.207 Electron/30.0.6 Safari/537.36" etag="CAcH_HFdIQ6tMNUPbQMg" version="24.4.8" type="device">
  <diagram id="C5RBs43oDa-KdzZeNtuy" name="Page-1">
    <mxGraphModel dx="2249" dy="1883" grid="1" gridSize="10" guides="1" tooltips="1" connect="1" arrows="1" fold="1" page="1" pageScale="1" pageWidth="827" pageHeight="1169" math="0" shadow="0">
      <root>
        <mxCell id="WIyWlLk6GJQsqaUBKTNV-0" />
        <mxCell id="WIyWlLk6GJQsqaUBKTNV-1" parent="WIyWlLk6GJQsqaUBKTNV-0" />
        <mxCell id="SUtJwRqX3lUBge7WxSiI-0" value="" style="rounded=0;whiteSpace=wrap;html=1;fillColor=#f5f5f5;fontColor=#333333;strokeColor=#666666;dashed=1;" parent="WIyWlLk6GJQsqaUBKTNV-1" vertex="1">
          <mxGeometry x="-580" y="90" width="400" height="460" as="geometry" />
        </mxCell>
        <mxCell id="WIyWlLk6GJQsqaUBKTNV-2" value="" style="rounded=0;html=1;jettySize=auto;orthogonalLoop=1;fontSize=11;endArrow=block;endFill=0;endSize=8;strokeWidth=1;shadow=0;labelBackgroundColor=none;edgeStyle=orthogonalEdgeStyle;entryX=0.5;entryY=0;entryDx=0;entryDy=0;" parent="WIyWlLk6GJQsqaUBKTNV-1" source="WIyWlLk6GJQsqaUBKTNV-3" target="WIyWlLk6GJQsqaUBKTNV-7" edge="1">
          <mxGeometry relative="1" as="geometry">
            <mxPoint x="384" y="170" as="targetPoint" />
          </mxGeometry>
        </mxCell>
        <mxCell id="IdEx18NoNRwhbqwuBXC2-3" style="edgeStyle=orthogonalEdgeStyle;rounded=0;orthogonalLoop=1;jettySize=auto;html=1;" parent="WIyWlLk6GJQsqaUBKTNV-1" source="WIyWlLk6GJQsqaUBKTNV-3" target="IdEx18NoNRwhbqwuBXC2-0" edge="1">
          <mxGeometry relative="1" as="geometry" />
        </mxCell>
        <mxCell id="WIyWlLk6GJQsqaUBKTNV-3" value="Starting Quichperf" style="rounded=1;whiteSpace=wrap;html=1;fontSize=12;glass=0;strokeWidth=1;shadow=0;" parent="WIyWlLk6GJQsqaUBKTNV-1" vertex="1">
          <mxGeometry x="364" y="80" width="120" height="40" as="geometry" />
        </mxCell>
        <mxCell id="Qu9wgfzqG_FOY5WLU6e--1" value="" style="edgeStyle=orthogonalEdgeStyle;rounded=0;orthogonalLoop=1;jettySize=auto;html=1;endArrow=block;endFill=0;" parent="WIyWlLk6GJQsqaUBKTNV-1" source="WIyWlLk6GJQsqaUBKTNV-7" target="Qu9wgfzqG_FOY5WLU6e--0" edge="1">
          <mxGeometry relative="1" as="geometry" />
        </mxCell>
        <mxCell id="WIyWlLk6GJQsqaUBKTNV-7" value="Creating ICE Agent" style="rounded=1;whiteSpace=wrap;html=1;fontSize=12;glass=0;strokeWidth=1;shadow=0;" parent="WIyWlLk6GJQsqaUBKTNV-1" vertex="1">
          <mxGeometry x="364" y="160" width="120" height="40" as="geometry" />
        </mxCell>
        <mxCell id="Qu9wgfzqG_FOY5WLU6e--13" value="" style="edgeStyle=orthogonalEdgeStyle;rounded=0;orthogonalLoop=1;jettySize=auto;html=1;endArrow=block;endFill=0;" parent="WIyWlLk6GJQsqaUBKTNV-1" source="WIyWlLk6GJQsqaUBKTNV-12" target="Qu9wgfzqG_FOY5WLU6e--12" edge="1">
          <mxGeometry relative="1" as="geometry" />
        </mxCell>
        <mxCell id="WIyWlLk6GJQsqaUBKTNV-12" value="Starting gathering" style="rounded=1;whiteSpace=wrap;html=1;fontSize=12;glass=0;strokeWidth=1;shadow=0;" parent="WIyWlLk6GJQsqaUBKTNV-1" vertex="1">
          <mxGeometry x="364" y="400" width="120" height="40" as="geometry" />
        </mxCell>
        <mxCell id="Qu9wgfzqG_FOY5WLU6e--2" value="" style="edgeStyle=orthogonalEdgeStyle;rounded=0;orthogonalLoop=1;jettySize=auto;html=1;endArrow=block;endFill=0;" parent="WIyWlLk6GJQsqaUBKTNV-1" source="SUtJwRqX3lUBge7WxSiI-3" target="WIyWlLk6GJQsqaUBKTNV-12" edge="1">
          <mxGeometry relative="1" as="geometry" />
        </mxCell>
        <mxCell id="Qu9wgfzqG_FOY5WLU6e--0" value="Configuring ICE Agent" style="whiteSpace=wrap;html=1;rounded=1;glass=0;strokeWidth=1;shadow=0;" parent="WIyWlLk6GJQsqaUBKTNV-1" vertex="1">
          <mxGeometry x="364" y="220" width="120" height="40" as="geometry" />
        </mxCell>
        <mxCell id="Qu9wgfzqG_FOY5WLU6e--25" style="edgeStyle=orthogonalEdgeStyle;rounded=0;orthogonalLoop=1;jettySize=auto;html=1;endArrow=block;endFill=0;" parent="WIyWlLk6GJQsqaUBKTNV-1" source="IdEx18NoNRwhbqwuBXC2-1" target="IdEx18NoNRwhbqwuBXC2-0" edge="1">
          <mxGeometry relative="1" as="geometry">
            <mxPoint x="-160" y="280" as="targetPoint" />
            <Array as="points">
              <mxPoint x="-60" y="340" />
              <mxPoint x="-60" y="200" />
            </Array>
          </mxGeometry>
        </mxCell>
        <mxCell id="SUtJwRqX3lUBge7WxSiI-20" value="" style="edgeStyle=orthogonalEdgeStyle;rounded=0;orthogonalLoop=1;jettySize=auto;html=1;endArrow=block;endFill=0;" parent="WIyWlLk6GJQsqaUBKTNV-1" source="Qu9wgfzqG_FOY5WLU6e--6" target="Qu9wgfzqG_FOY5WLU6e--4" edge="1">
          <mxGeometry relative="1" as="geometry" />
        </mxCell>
        <mxCell id="Qu9wgfzqG_FOY5WLU6e--6" value="Add Path to QUIC" style="whiteSpace=wrap;html=1;rounded=1;glass=0;strokeWidth=1;shadow=0;" parent="WIyWlLk6GJQsqaUBKTNV-1" vertex="1">
          <mxGeometry x="190" y="580" width="120" height="35" as="geometry" />
        </mxCell>
        <mxCell id="Qu9wgfzqG_FOY5WLU6e--15" value="" style="edgeStyle=orthogonalEdgeStyle;rounded=0;orthogonalLoop=1;jettySize=auto;html=1;endArrow=block;endFill=0;" parent="WIyWlLk6GJQsqaUBKTNV-1" source="Qu9wgfzqG_FOY5WLU6e--12" target="Qu9wgfzqG_FOY5WLU6e--14" edge="1">
          <mxGeometry relative="1" as="geometry" />
        </mxCell>
        <mxCell id="Qu9wgfzqG_FOY5WLU6e--12" value="Find local&lt;div&gt;candidates&lt;/div&gt;" style="rounded=1;whiteSpace=wrap;html=1;fontSize=12;glass=0;strokeWidth=1;shadow=0;" parent="WIyWlLk6GJQsqaUBKTNV-1" vertex="1">
          <mxGeometry x="364" y="460" width="120" height="40" as="geometry" />
        </mxCell>
        <mxCell id="Qu9wgfzqG_FOY5WLU6e--17" value="" style="edgeStyle=orthogonalEdgeStyle;rounded=0;orthogonalLoop=1;jettySize=auto;html=1;endArrow=block;endFill=0;" parent="WIyWlLk6GJQsqaUBKTNV-1" source="Qu9wgfzqG_FOY5WLU6e--14" target="Qu9wgfzqG_FOY5WLU6e--16" edge="1">
          <mxGeometry relative="1" as="geometry" />
        </mxCell>
        <mxCell id="Qu9wgfzqG_FOY5WLU6e--14" value="Exchange&lt;div&gt;Candidates&lt;/div&gt;" style="rounded=1;whiteSpace=wrap;html=1;fontSize=12;glass=0;strokeWidth=1;shadow=0;" parent="WIyWlLk6GJQsqaUBKTNV-1" vertex="1">
          <mxGeometry x="364" y="520" width="120" height="40" as="geometry" />
        </mxCell>
        <mxCell id="Qu9wgfzqG_FOY5WLU6e--19" value="" style="edgeStyle=orthogonalEdgeStyle;rounded=0;orthogonalLoop=1;jettySize=auto;html=1;endArrow=block;endFill=0;" parent="WIyWlLk6GJQsqaUBKTNV-1" source="Qu9wgfzqG_FOY5WLU6e--16" target="Qu9wgfzqG_FOY5WLU6e--18" edge="1">
          <mxGeometry relative="1" as="geometry" />
        </mxCell>
        <mxCell id="Qu9wgfzqG_FOY5WLU6e--16" value="Create candidate pairs" style="rounded=1;whiteSpace=wrap;html=1;fontSize=12;glass=0;strokeWidth=1;shadow=0;" parent="WIyWlLk6GJQsqaUBKTNV-1" vertex="1">
          <mxGeometry x="364" y="580" width="120" height="40" as="geometry" />
        </mxCell>
        <mxCell id="Qu9wgfzqG_FOY5WLU6e--24" value="" style="edgeStyle=orthogonalEdgeStyle;rounded=0;orthogonalLoop=1;jettySize=auto;html=1;endArrow=block;endFill=0;" parent="WIyWlLk6GJQsqaUBKTNV-1" source="SUtJwRqX3lUBge7WxSiI-14" target="Qu9wgfzqG_FOY5WLU6e--6" edge="1">
          <mxGeometry relative="1" as="geometry">
            <mxPoint x="260" y="640" as="sourcePoint" />
            <mxPoint x="260" y="580" as="targetPoint" />
            <Array as="points" />
          </mxGeometry>
        </mxCell>
        <mxCell id="SUtJwRqX3lUBge7WxSiI-13" value="STUN" style="edgeStyle=orthogonalEdgeStyle;rounded=0;orthogonalLoop=1;jettySize=auto;html=1;" parent="WIyWlLk6GJQsqaUBKTNV-1" source="Qu9wgfzqG_FOY5WLU6e--18" edge="1">
          <mxGeometry relative="1" as="geometry">
            <mxPoint x="584" y="660" as="targetPoint" />
          </mxGeometry>
        </mxCell>
        <mxCell id="Qu9wgfzqG_FOY5WLU6e--18" value="Probe paths from candidate list" style="rounded=1;whiteSpace=wrap;html=1;fontSize=12;glass=0;strokeWidth=1;shadow=0;fillColor=#dae8fc;strokeColor=#6c8ebf;" parent="WIyWlLk6GJQsqaUBKTNV-1" vertex="1">
          <mxGeometry x="364" y="640" width="120" height="40" as="geometry" />
        </mxCell>
        <mxCell id="SUtJwRqX3lUBge7WxSiI-12" style="rounded=0;orthogonalLoop=1;jettySize=auto;html=1;startArrow=classic;startFill=1;edgeStyle=orthogonalEdgeStyle;" parent="WIyWlLk6GJQsqaUBKTNV-1" source="IdEx18NoNRwhbqwuBXC2-1" target="Qu9wgfzqG_FOY5WLU6e--14" edge="1">
          <mxGeometry relative="1" as="geometry">
            <Array as="points">
              <mxPoint x="130" y="540" />
            </Array>
          </mxGeometry>
        </mxCell>
        <mxCell id="Qu9wgfzqG_FOY5WLU6e--22" value="Start of the gathering loop" style="text;html=1;align=center;verticalAlign=middle;resizable=0;points=[];autosize=1;strokeColor=none;fillColor=none;" parent="WIyWlLk6GJQsqaUBKTNV-1" vertex="1">
          <mxGeometry x="100" y="40" width="160" height="30" as="geometry" />
        </mxCell>
        <mxCell id="Qu9wgfzqG_FOY5WLU6e--26" value="&lt;div&gt;Restart&lt;/div&gt;&lt;div&gt;gathering&lt;br&gt;&lt;/div&gt;" style="edgeStyle=orthogonalEdgeStyle;rounded=0;orthogonalLoop=1;jettySize=auto;html=1;endArrow=block;endFill=0;" parent="WIyWlLk6GJQsqaUBKTNV-1" source="Qu9wgfzqG_FOY5WLU6e--4" target="WIyWlLk6GJQsqaUBKTNV-7" edge="1">
          <mxGeometry x="-0.0588" relative="1" as="geometry">
            <mxPoint x="340" y="210" as="targetPoint" />
            <Array as="points">
              <mxPoint x="250" y="180" />
            </Array>
            <mxPoint x="270" y="490" as="sourcePoint" />
            <mxPoint as="offset" />
          </mxGeometry>
        </mxCell>
        <mxCell id="Qu9wgfzqG_FOY5WLU6e--4" value="&lt;div&gt;Possible&lt;/div&gt;&lt;div&gt;Candidate&lt;/div&gt;&lt;div&gt;Found&lt;br&gt;&lt;/div&gt;" style="rhombus;whiteSpace=wrap;html=1;rounded=1;glass=0;strokeWidth=1;shadow=0;" parent="WIyWlLk6GJQsqaUBKTNV-1" vertex="1">
          <mxGeometry x="205" y="460" width="90" height="90" as="geometry" />
        </mxCell>
        <mxCell id="IdEx18NoNRwhbqwuBXC2-2" value="" style="edgeStyle=orthogonalEdgeStyle;rounded=0;orthogonalLoop=1;jettySize=auto;html=1;" parent="WIyWlLk6GJQsqaUBKTNV-1" source="SUtJwRqX3lUBge7WxSiI-16" target="IdEx18NoNRwhbqwuBXC2-1" edge="1">
          <mxGeometry relative="1" as="geometry" />
        </mxCell>
        <mxCell id="IdEx18NoNRwhbqwuBXC2-0" value="Build initial QUIC Path" style="rounded=1;whiteSpace=wrap;html=1;fontSize=12;glass=0;strokeWidth=1;shadow=0;" parent="WIyWlLk6GJQsqaUBKTNV-1" vertex="1">
          <mxGeometry x="70" y="160" width="120" height="40" as="geometry" />
        </mxCell>
        <mxCell id="SUtJwRqX3lUBge7WxSiI-10" style="edgeStyle=orthogonalEdgeStyle;rounded=0;orthogonalLoop=1;jettySize=auto;html=1;startArrow=classic;startFill=1;" parent="WIyWlLk6GJQsqaUBKTNV-1" target="SUtJwRqX3lUBge7WxSiI-3" edge="1">
          <mxGeometry relative="1" as="geometry">
            <mxPoint x="260" y="370" as="sourcePoint" />
          </mxGeometry>
        </mxCell>
        <mxCell id="IdEx18NoNRwhbqwuBXC2-1" value="Exchange data&lt;div&gt;&lt;span style=&quot;background-color: initial;&quot;&gt;via QUIC&lt;/span&gt;&lt;/div&gt;" style="rounded=1;whiteSpace=wrap;html=1;fontSize=12;glass=0;strokeWidth=1;shadow=0;" parent="WIyWlLk6GJQsqaUBKTNV-1" vertex="1">
          <mxGeometry x="70" y="300" width="120" height="40" as="geometry" />
        </mxCell>
        <mxCell id="SUtJwRqX3lUBge7WxSiI-2" value="" style="edgeStyle=orthogonalEdgeStyle;rounded=0;orthogonalLoop=1;jettySize=auto;html=1;endArrow=block;endFill=0;" parent="WIyWlLk6GJQsqaUBKTNV-1" source="Qu9wgfzqG_FOY5WLU6e--0" target="SUtJwRqX3lUBge7WxSiI-1" edge="1">
          <mxGeometry relative="1" as="geometry">
            <mxPoint x="424" y="270" as="sourcePoint" />
            <mxPoint x="424" y="420" as="targetPoint" />
          </mxGeometry>
        </mxCell>
        <mxCell id="SUtJwRqX3lUBge7WxSiI-9" style="rounded=0;orthogonalLoop=1;jettySize=auto;html=1;startArrow=classic;startFill=1;" parent="WIyWlLk6GJQsqaUBKTNV-1" source="SUtJwRqX3lUBge7WxSiI-1" edge="1">
          <mxGeometry relative="1" as="geometry">
            <mxPoint x="260" y="351.25" as="targetPoint" />
          </mxGeometry>
        </mxCell>
        <mxCell id="SUtJwRqX3lUBge7WxSiI-1" value="Exchange&amp;nbsp;&lt;div&gt;Credentials&lt;/div&gt;" style="whiteSpace=wrap;html=1;rounded=1;glass=0;strokeWidth=1;shadow=0;" parent="WIyWlLk6GJQsqaUBKTNV-1" vertex="1">
          <mxGeometry x="364" y="280" width="120" height="40" as="geometry" />
        </mxCell>
        <mxCell id="SUtJwRqX3lUBge7WxSiI-4" value="" style="edgeStyle=orthogonalEdgeStyle;rounded=0;orthogonalLoop=1;jettySize=auto;html=1;endArrow=block;endFill=0;" parent="WIyWlLk6GJQsqaUBKTNV-1" source="SUtJwRqX3lUBge7WxSiI-1" target="SUtJwRqX3lUBge7WxSiI-3" edge="1">
          <mxGeometry relative="1" as="geometry">
            <mxPoint x="424" y="340" as="sourcePoint" />
            <mxPoint x="424" y="420" as="targetPoint" />
          </mxGeometry>
        </mxCell>
        <mxCell id="SUtJwRqX3lUBge7WxSiI-3" value="Synchronize" style="whiteSpace=wrap;html=1;rounded=1;glass=0;strokeWidth=1;shadow=0;" parent="WIyWlLk6GJQsqaUBKTNV-1" vertex="1">
          <mxGeometry x="364" y="340" width="120" height="40" as="geometry" />
        </mxCell>
        <mxCell id="SUtJwRqX3lUBge7WxSiI-15" value="" style="edgeStyle=orthogonalEdgeStyle;rounded=0;orthogonalLoop=1;jettySize=auto;html=1;endArrow=block;endFill=0;" parent="WIyWlLk6GJQsqaUBKTNV-1" source="Qu9wgfzqG_FOY5WLU6e--18" target="SUtJwRqX3lUBge7WxSiI-14" edge="1">
          <mxGeometry relative="1" as="geometry">
            <mxPoint x="484" y="660" as="sourcePoint" />
            <mxPoint x="330" y="660" as="targetPoint" />
            <Array as="points" />
          </mxGeometry>
        </mxCell>
        <mxCell id="SUtJwRqX3lUBge7WxSiI-14" value="Process&lt;div&gt;responses&lt;/div&gt;" style="rounded=1;whiteSpace=wrap;html=1;fontSize=12;glass=0;strokeWidth=1;shadow=0;" parent="WIyWlLk6GJQsqaUBKTNV-1" vertex="1">
          <mxGeometry x="190" y="640" width="120" height="40" as="geometry" />
        </mxCell>
        <mxCell id="SUtJwRqX3lUBge7WxSiI-17" value="" style="edgeStyle=orthogonalEdgeStyle;rounded=0;orthogonalLoop=1;jettySize=auto;html=1;" parent="WIyWlLk6GJQsqaUBKTNV-1" source="IdEx18NoNRwhbqwuBXC2-0" target="SUtJwRqX3lUBge7WxSiI-16" edge="1">
          <mxGeometry relative="1" as="geometry">
            <mxPoint x="130" y="200" as="sourcePoint" />
            <mxPoint x="130" y="330" as="targetPoint" />
          </mxGeometry>
        </mxCell>
        <mxCell id="SUtJwRqX3lUBge7WxSiI-16" value="Poll all&lt;div&gt;paths&lt;/div&gt;" style="rounded=1;whiteSpace=wrap;html=1;fontSize=12;glass=0;strokeWidth=1;shadow=0;" parent="WIyWlLk6GJQsqaUBKTNV-1" vertex="1">
          <mxGeometry x="70" y="230" width="120" height="40" as="geometry" />
        </mxCell>
      </root>
    </mxGraphModel>
  </diagram>
</mxfile>
